<?xml version="1.0" encoding="utf-8"?>
<!DOCTYPE svg PUBLIC "-//W3C//DTD SVG 20010904//EN" "http://www.w3.org/TR/2001/REC-SVG-20010904/DTD/svg10.dtd">
<svg version="1.0" xmlns="http://www.w3.org/2000/svg" width="60px" height="118px" viewBox="0 0 60 118" preserveAspectRatio="xMidYMid meet">
 <g fill="#ff0202">
  <path d="M10 84.9 c0 -23.9 -0.3 -32.8 -1.2 -33.7 -2.5 -2.5 3.9 -1.2 10.1 2 4.5 2.3 7.5 3.2 11.1 3.2 3.6 0 6.6 -0.9 11.1 -3.2 6.5 -3.3 12.1 -4.4 10 -1.9 -0.7 0.9 -1.2 11.8 -1.3 33.2 l-0.3 31.9 -9.8 -9.4 -9.8 -9.3 -10 9.9 -9.9 9.9 0 -32.6z"/>
 </g>
 <g fill="#bd752e">
  <path d="M20.3 58.2 c-25.1 -9 -27.2 -43.2 -3.5 -54.9 8.1 -4 18.3 -4 26.4 0 10.7 5.3 16.3 14.4 16.3 26.7 0 8.5 -2.1 14.2 -7.4 20.3 -7.2 8.1 -21.3 11.7 -31.8 7.9z m14.3 -13.8 c4.3 -2 10.1 -8.7 10.9 -12.5 1.3 -5.7 -6.7 -15.9 -13.6 -17.4 -5.7 -1.3 -15.9 6.7 -17.4 13.6 -1.1 5.1 4 12.7 11 16.3 3.8 2 4.9 2 9.1 0z"/>
 </g>
 <g fill="#b16e2b">
  <path d="M25.6 48.7 c-5.5 -1.4 -12.9 -8.9 -14.3 -14.5 -1.6 -6.4 0.1 -11.7 5.7 -17.2 8.4 -8.5 17.6 -8.5 26 0 7.9 7.8 8.4 16.7 1.4 24.8 -5.3 6.2 -12 8.7 -18.8 6.9z"/>
 </g>
</svg>